<svg width="33" height="33" viewBox="0 0 33 33" fill="none" xmlns="http://www.w3.org/2000/svg">
<mask id="path-1-inside-1_90_155" fill="white">
<path fill-rule="evenodd" clip-rule="evenodd" d="M16.4998 8.38405C18.3244 8.38405 19.809 9.86904 19.809 11.6939C19.809 13.5185 18.3244 15.0032 16.4998 15.0032C14.6753 15.0032 13.1907 13.5185 13.1907 11.6939C13.1907 9.86904 14.6753 8.38405 16.4998 8.38405ZM16.4998 16.1096C18.9346 16.1096 20.9157 14.1284 20.9157 11.6939C20.9157 9.25885 18.9346 7.27764 16.4998 7.27764C14.0651 7.27764 12.0846 9.25885 12.0846 11.6939C12.0846 14.128 14.0651 16.1096 16.4998 16.1096ZM9.77387 10.9558V12.4318H10.636C10.8959 12.4318 11.1205 12.6124 11.1765 12.8663C11.3145 13.4945 11.5594 14.0874 11.9063 14.6289C12.0473 14.8476 12.0156 15.1348 11.832 15.3188L11.2222 15.928L12.2649 16.9711L12.8747 16.3612C13.0584 16.1776 13.345 16.1462 13.5639 16.2862C14.1061 16.6331 14.699 16.8791 15.3271 17.017C15.5807 17.0724 15.762 17.297 15.762 17.5573V18.4197H17.237V17.5573C17.237 17.297 17.4179 17.0724 17.6722 17.017C18.3004 16.8791 18.8929 16.6331 19.4351 16.2862C19.6537 16.1462 19.941 16.1776 20.1239 16.3612L20.7341 16.9711L21.7768 15.928L21.1673 15.3188C20.9834 15.1345 20.952 14.8476 21.093 14.6289C21.4399 14.0874 21.6849 13.4945 21.8228 12.8663C21.8778 12.6124 22.1034 12.4318 22.363 12.4318H23.2251V10.9558H22.363C22.1034 10.9558 21.8778 10.7752 21.8228 10.5209C21.6849 9.8927 21.4399 9.29984 21.093 8.75863C20.952 8.53968 20.9834 8.25242 21.1673 8.06879L21.7768 7.4596L20.7341 6.41584L20.1239 7.02603C19.9406 7.20932 19.6537 7.24065 19.4351 7.10068C18.8929 6.75376 18.3004 6.50782 17.6722 6.37052C17.4179 6.31453 17.237 6.08992 17.237 5.82998V4.96785H15.762V5.82998C15.762 6.08992 15.5807 6.31453 15.3271 6.37052C14.699 6.50782 14.1061 6.75376 13.5639 7.10068C13.345 7.24065 13.058 7.20932 12.8747 7.02603L12.2649 6.41584L11.2222 7.4596L11.832 8.06879C12.0156 8.25275 12.0473 8.53968 11.9063 8.75863C11.5594 9.29984 11.3145 9.8927 11.1765 10.5209C11.1205 10.7752 10.8959 10.9558 10.636 10.9558H9.77387ZM9.22067 13.5379H10.2068C10.3387 13.9901 10.519 14.4256 10.7463 14.8396L10.0491 15.5371C9.94482 15.641 9.88684 15.7813 9.88684 15.928C9.88684 16.0749 9.94482 16.2156 10.0491 16.3192L11.874 18.1448C11.9783 18.2484 12.1186 18.3074 12.2652 18.3074C12.4122 18.3074 12.5532 18.2481 12.6561 18.1448L13.354 17.4476C13.7679 17.6742 14.2027 17.8545 14.656 17.9865V18.9733C14.656 19.2779 14.9039 19.5265 15.2092 19.5265H17.7905C18.0964 19.5265 18.344 19.2779 18.344 18.9733V17.9865C18.7963 17.8545 19.2325 17.6739 19.646 17.4476L20.3435 18.1448C20.5595 18.3607 20.9094 18.3607 21.1257 18.1448L22.9505 16.3192C23.0552 16.2156 23.1132 16.0753 23.1132 15.928C23.1132 15.7817 23.0552 15.641 22.9505 15.5371L22.2537 14.8396C22.481 14.4256 22.6613 13.9901 22.7932 13.5379H23.7787C24.0846 13.5379 24.3322 13.2899 24.3322 12.985V10.4026C24.3322 10.0973 24.0846 9.84938 23.7787 9.84938H22.7932C22.6613 9.39715 22.4807 8.96092 22.2537 8.54801L22.9505 7.85051C23.0552 7.7462 23.1132 7.60623 23.1132 7.4596C23.1132 7.31263 23.0552 7.17167 22.9505 7.06802L21.1257 5.24212C21.0214 5.13847 20.8811 5.08049 20.7344 5.08049C20.5878 5.08049 20.4468 5.13881 20.3435 5.24212L19.646 5.93929C19.2325 5.71267 18.7963 5.53238 18.344 5.40041V4.41431C18.344 4.10905 18.0964 3.8611 17.7905 3.8611H15.2092C14.9039 3.8611 14.656 4.10905 14.656 4.41431V5.40041C14.2027 5.53238 13.7679 5.71301 13.354 5.93929L12.6561 5.24212C12.5532 5.13847 12.4125 5.08049 12.2652 5.08049C12.1189 5.08049 11.9783 5.13881 11.874 5.24212L10.0491 7.06802C9.94482 7.17167 9.88684 7.3123 9.88684 7.4596C9.88684 7.6059 9.94482 7.7462 10.0491 7.85051L10.7463 8.54801C10.5197 8.96158 10.3384 9.39715 10.2068 9.84938H9.22067C8.91508 9.84938 8.66681 10.0973 8.66681 10.4026V12.985C8.66681 13.2899 8.91508 13.5379 9.22067 13.5379ZM1.85053 31.8933L12.4209 20.8625L16.4998 22.4378L20.4702 20.9055L30.6546 31.8933H1.86886C1.8622 31.8933 1.85653 31.8933 1.85053 31.8933ZM4.91143 16.7774L1.91452 15.62L4.91109 14.1054V16.7774H4.91143ZM1.10672 31.0701V16.4962C1.10672 16.4955 1.10672 16.4948 1.10672 16.4942L11.3015 20.4306L1.10672 31.0701ZM7.13853 1.10641C6.52069 1.10641 6.01815 1.60896 6.01815 2.22682V17.204L16.4998 21.2521L26.9819 17.2043V6.5868C26.9819 6.4605 26.9692 6.34119 26.9452 6.22555H22.9679C22.3584 6.22555 21.8628 5.73 21.8628 5.12048V1.14307C21.7472 1.11874 21.6275 1.10641 21.5002 1.10641H7.13853ZM26.199 5.11981L22.9692 5.12048V1.88956L26.199 5.11981ZM31.0842 15.62L28.0872 16.7774V14.1054L31.0842 15.62ZM31.8926 16.4962V31.1314C31.8926 31.2661 31.858 31.391 31.7963 31.5003L21.5806 20.4762L31.8926 16.4942C31.8926 16.4948 31.8926 16.4955 31.8926 16.4962ZM31.9729 14.8286L28.0872 12.866V6.5868C28.0872 5.82798 27.8163 5.17113 27.2791 4.63492L23.4534 0.809145C22.9175 0.27227 22.2607 0 21.5006 0H7.13853C5.91051 0 4.91109 0.999101 4.91109 2.22715V12.8663L1.02574 14.8286C0.38357 15.1535 0 15.7773 0 16.4962V31.1314C0 32.1619 0.838788 33 1.86853 33H31.1318C32.1622 33 33 32.1615 33 31.1314V16.4962C33.0003 15.7763 32.6158 15.1531 31.9729 14.8286Z"/>
</mask>
<path fill-rule="evenodd" clip-rule="evenodd" d="M16.4998 8.38405C18.3244 8.38405 19.809 9.86904 19.809 11.6939C19.809 13.5185 18.3244 15.0032 16.4998 15.0032C14.6753 15.0032 13.1907 13.5185 13.1907 11.6939C13.1907 9.86904 14.6753 8.38405 16.4998 8.38405ZM16.4998 16.1096C18.9346 16.1096 20.9157 14.1284 20.9157 11.6939C20.9157 9.25885 18.9346 7.27764 16.4998 7.27764C14.0651 7.27764 12.0846 9.25885 12.0846 11.6939C12.0846 14.128 14.0651 16.1096 16.4998 16.1096ZM9.77387 10.9558V12.4318H10.636C10.8959 12.4318 11.1205 12.6124 11.1765 12.8663C11.3145 13.4945 11.5594 14.0874 11.9063 14.6289C12.0473 14.8476 12.0156 15.1348 11.832 15.3188L11.2222 15.928L12.2649 16.9711L12.8747 16.3612C13.0584 16.1776 13.345 16.1462 13.5639 16.2862C14.1061 16.6331 14.699 16.8791 15.3271 17.017C15.5807 17.0724 15.762 17.297 15.762 17.5573V18.4197H17.237V17.5573C17.237 17.297 17.4179 17.0724 17.6722 17.017C18.3004 16.8791 18.8929 16.6331 19.4351 16.2862C19.6537 16.1462 19.941 16.1776 20.1239 16.3612L20.7341 16.9711L21.7768 15.928L21.1673 15.3188C20.9834 15.1345 20.952 14.8476 21.093 14.6289C21.4399 14.0874 21.6849 13.4945 21.8228 12.8663C21.8778 12.6124 22.1034 12.4318 22.363 12.4318H23.2251V10.9558H22.363C22.1034 10.9558 21.8778 10.7752 21.8228 10.5209C21.6849 9.8927 21.4399 9.29984 21.093 8.75863C20.952 8.53968 20.9834 8.25242 21.1673 8.06879L21.7768 7.4596L20.7341 6.41584L20.1239 7.02603C19.9406 7.20932 19.6537 7.24065 19.4351 7.10068C18.8929 6.75376 18.3004 6.50782 17.6722 6.37052C17.4179 6.31453 17.237 6.08992 17.237 5.82998V4.96785H15.762V5.82998C15.762 6.08992 15.5807 6.31453 15.3271 6.37052C14.699 6.50782 14.1061 6.75376 13.5639 7.10068C13.345 7.24065 13.058 7.20932 12.8747 7.02603L12.2649 6.41584L11.2222 7.4596L11.832 8.06879C12.0156 8.25275 12.0473 8.53968 11.9063 8.75863C11.5594 9.29984 11.3145 9.8927 11.1765 10.5209C11.1205 10.7752 10.8959 10.9558 10.636 10.9558H9.77387ZM9.22067 13.5379H10.2068C10.3387 13.9901 10.519 14.4256 10.7463 14.8396L10.0491 15.5371C9.94482 15.641 9.88684 15.7813 9.88684 15.928C9.88684 16.0749 9.94482 16.2156 10.0491 16.3192L11.874 18.1448C11.9783 18.2484 12.1186 18.3074 12.2652 18.3074C12.4122 18.3074 12.5532 18.2481 12.6561 18.1448L13.354 17.4476C13.7679 17.6742 14.2027 17.8545 14.656 17.9865V18.9733C14.656 19.2779 14.9039 19.5265 15.2092 19.5265H17.7905C18.0964 19.5265 18.344 19.2779 18.344 18.9733V17.9865C18.7963 17.8545 19.2325 17.6739 19.646 17.4476L20.3435 18.1448C20.5595 18.3607 20.9094 18.3607 21.1257 18.1448L22.9505 16.3192C23.0552 16.2156 23.1132 16.0753 23.1132 15.928C23.1132 15.7817 23.0552 15.641 22.9505 15.5371L22.2537 14.8396C22.481 14.4256 22.6613 13.9901 22.7932 13.5379H23.7787C24.0846 13.5379 24.3322 13.2899 24.3322 12.985V10.4026C24.3322 10.0973 24.0846 9.84938 23.7787 9.84938H22.7932C22.6613 9.39715 22.4807 8.96092 22.2537 8.54801L22.9505 7.85051C23.0552 7.7462 23.1132 7.60623 23.1132 7.4596C23.1132 7.31263 23.0552 7.17167 22.9505 7.06802L21.1257 5.24212C21.0214 5.13847 20.8811 5.08049 20.7344 5.08049C20.5878 5.08049 20.4468 5.13881 20.3435 5.24212L19.646 5.93929C19.2325 5.71267 18.7963 5.53238 18.344 5.40041V4.41431C18.344 4.10905 18.0964 3.8611 17.7905 3.8611H15.2092C14.9039 3.8611 14.656 4.10905 14.656 4.41431V5.40041C14.2027 5.53238 13.7679 5.71301 13.354 5.93929L12.6561 5.24212C12.5532 5.13847 12.4125 5.08049 12.2652 5.08049C12.1189 5.08049 11.9783 5.13881 11.874 5.24212L10.0491 7.06802C9.94482 7.17167 9.88684 7.3123 9.88684 7.4596C9.88684 7.6059 9.94482 7.7462 10.0491 7.85051L10.7463 8.54801C10.5197 8.96158 10.3384 9.39715 10.2068 9.84938H9.22067C8.91508 9.84938 8.66681 10.0973 8.66681 10.4026V12.985C8.66681 13.2899 8.91508 13.5379 9.22067 13.5379ZM1.85053 31.8933L12.4209 20.8625L16.4998 22.4378L20.4702 20.9055L30.6546 31.8933H1.86886C1.8622 31.8933 1.85653 31.8933 1.85053 31.8933ZM4.91143 16.7774L1.91452 15.62L4.91109 14.1054V16.7774H4.91143ZM1.10672 31.0701V16.4962C1.10672 16.4955 1.10672 16.4948 1.10672 16.4942L11.3015 20.4306L1.10672 31.0701ZM7.13853 1.10641C6.52069 1.10641 6.01815 1.60896 6.01815 2.22682V17.204L16.4998 21.2521L26.9819 17.2043V6.5868C26.9819 6.4605 26.9692 6.34119 26.9452 6.22555H22.9679C22.3584 6.22555 21.8628 5.73 21.8628 5.12048V1.14307C21.7472 1.11874 21.6275 1.10641 21.5002 1.10641H7.13853ZM26.199 5.11981L22.9692 5.12048V1.88956L26.199 5.11981ZM31.0842 15.62L28.0872 16.7774V14.1054L31.0842 15.62ZM31.8926 16.4962V31.1314C31.8926 31.2661 31.858 31.391 31.7963 31.5003L21.5806 20.4762L31.8926 16.4942C31.8926 16.4948 31.8926 16.4955 31.8926 16.4962ZM31.9729 14.8286L28.0872 12.866V6.5868C28.0872 5.82798 27.8163 5.17113 27.2791 4.63492L23.4534 0.809145C22.9175 0.27227 22.2607 0 21.5006 0H7.13853C5.91051 0 4.91109 0.999101 4.91109 2.22715V12.8663L1.02574 14.8286C0.38357 15.1535 0 15.7773 0 16.4962V31.1314C0 32.1619 0.838788 33 1.86853 33H31.1318C32.1622 33 33 32.1615 33 31.1314V16.4962C33.0003 15.7763 32.6158 15.1531 31.9729 14.8286Z" stroke="#AA7D77" stroke-width="2" mask="url(#path-1-inside-1_90_155)"/>
</svg>

