<svg width="37" height="37" viewBox="0 0 37 37" fill="none" xmlns="http://www.w3.org/2000/svg">
<path d="M36.198 31.3576H27.052C26.7794 31.3576 26.5579 31.136 26.5579 30.8617C26.5579 30.5892 26.7794 30.3677 27.052 30.3677H35.7024L35.7042 0.991522H0.990319V30.3677H9.64256C9.91509 30.3677 10.1366 30.5892 10.1366 30.8617C10.1366 31.136 9.9151 31.3576 9.64256 31.3576H0.496561C0.22228 31.3576 0.000732422 31.136 0.000732422 30.8617V0.495828C0.000732422 0.221547 0.222266 0 0.496561 0H36.1984C36.4727 0 36.6942 0.221534 36.6942 0.495828V30.8617C36.6942 31.136 36.4723 31.3576 36.198 31.3576Z" fill="#AA7D77"/>
<path d="M36.1977 7.63932H0.495829C0.221547 7.63932 0 7.41778 0 7.14349C0 6.87097 0.221534 6.64941 0.495829 6.64941H36.1977C36.4719 6.64941 36.6935 6.87095 36.6935 7.14349C36.6935 7.41777 36.4719 7.63932 36.1977 7.63932Z" fill="#AA7D77"/>
<path d="M16.3831 5.62986H4.21107C3.21064 5.62986 2.40015 4.81933 2.40015 3.82069C2.40015 2.82026 3.21068 2.00977 4.21107 2.00977H16.3831C17.3835 2.00977 18.1923 2.8203 18.1923 3.82069C18.1923 4.81937 17.3835 5.62986 16.3831 5.62986ZM4.21107 3.00138C3.75746 3.00138 3.39176 3.36708 3.39176 3.82069C3.39176 4.27255 3.75746 4.64001 4.21107 4.64001H16.3831C16.8367 4.64001 17.2024 4.27254 17.2024 3.82069C17.2024 3.36708 16.8367 3.00138 16.3831 3.00138H4.21107Z" fill="#AA7D77"/>
<path d="M26.4764 5.31174H24.676C24.2751 5.31878 23.8901 5.16581 23.6035 4.8845C23.3187 4.60495 23.1587 4.22164 23.1587 3.82078C23.1587 3.41992 23.3187 3.03662 23.6035 2.75706C23.8901 2.47575 24.2751 2.32279 24.676 2.32982H26.4764C27.2905 2.34389 27.9427 3.00672 27.9427 3.82077C27.9427 4.63482 27.2905 5.29765 26.4764 5.31174ZM24.676 3.3197C24.5406 3.31618 24.4088 3.36717 24.3121 3.46035C24.2136 3.5553 24.1591 3.6854 24.1591 3.82078C24.1591 3.95616 24.2136 4.08627 24.3121 4.18121C24.4088 4.2744 24.5406 4.32538 24.676 4.32187H26.4764C26.7472 4.31308 26.9634 4.09154 26.9634 3.82077C26.9634 3.55001 26.7471 3.32846 26.4764 3.31968L24.676 3.3197Z" fill="#AA7D77"/>
<path d="M32.8009 5.31172H31.0005C30.1864 5.29766 29.5359 4.63482 29.5359 3.82077C29.5359 3.00672 30.1864 2.34391 31.0005 2.32982H32.8009C33.2017 2.32279 33.5868 2.47575 33.8734 2.75706C34.1582 3.03662 34.3182 3.41992 34.3182 3.82078C34.3182 4.22164 34.1582 4.60494 33.8734 4.8845C33.5868 5.16581 33.2017 5.31876 32.8009 5.31172ZM31.0005 3.31968C30.7297 3.32847 30.5152 3.55 30.5152 3.82077C30.5152 4.09153 30.7297 4.31309 31.0005 4.32187H32.8009C32.9362 4.32538 33.0681 4.2744 33.1648 4.18121C33.2633 4.08627 33.3178 3.95616 33.3178 3.82078C33.3178 3.6854 33.2633 3.5553 33.1648 3.46035C33.0681 3.36717 32.9362 3.31618 32.8009 3.3197L31.0005 3.31968Z" fill="#AA7D77"/>
<path d="M22.0583 32.1156H14.6353C14.4472 32.1156 14.2749 32.0083 14.1905 31.8395C14.0621 31.5793 13.9391 31.3173 13.8265 31.0641C13.7386 30.869 13.6542 30.6738 13.5751 30.4839C13.4485 30.1762 13.3254 29.8633 13.2129 29.5521V29.5503C12.8912 28.6677 12.6309 27.7622 12.4375 26.8427C11.9417 24.4779 11.9242 22.1077 12.3883 19.7996C12.7733 17.913 13.4503 16.0985 14.3961 14.4213C16.0436 11.4728 17.9424 9.81323 18.0233 9.74436C18.2097 9.58261 18.4839 9.58261 18.6703 9.74436C18.7512 9.81293 20.643 11.4639 22.2852 14.3984C23.2346 16.0775 23.915 17.8937 24.3036 19.7838C24.7695 22.0976 24.7537 24.4711 24.2561 26.8432C23.9906 28.0897 23.6091 29.3082 23.1186 30.4826C23.0395 30.6725 22.9551 30.8694 22.8672 31.0646C22.7546 31.3178 22.6316 31.578 22.5032 31.84H22.5015C22.4188 32.0088 22.2465 32.116 22.0584 32.116L22.0583 32.1156ZM14.9463 31.1257H21.7487C21.8225 30.9692 21.8946 30.8145 21.9632 30.6616C22.0475 30.4717 22.1284 30.2853 22.204 30.1042V30.1025C22.6717 28.9842 23.0339 27.8256 23.2871 26.6406C24.3508 21.5716 22.8598 17.4486 21.4216 14.8835C20.2542 12.8001 18.9426 11.3865 18.3466 10.7993C17.7488 11.39 16.4266 12.8159 15.2591 14.9046C13.1774 18.6302 12.5533 22.5793 13.406 26.6405C13.5906 27.5143 13.8368 28.3741 14.1427 29.2127C14.2499 29.5099 14.3677 29.8105 14.489 30.1024C14.5646 30.2817 14.6455 30.4716 14.7299 30.658C14.7985 30.8127 14.8706 30.9675 14.9444 31.1257H14.9463Z" fill="#AA7D77"/>
<path d="M23.0146 29.8774H13.6787C13.4044 29.8774 13.1829 29.6559 13.1829 29.3816C13.1829 29.109 13.4044 28.8857 13.6787 28.8857H23.0146C23.2889 28.8857 23.5105 29.109 23.5105 29.3816C23.5105 29.6559 23.2889 29.8774 23.0146 29.8774Z" fill="#AA7D77"/>
<path d="M21.8647 15.1579H14.8283C14.5541 15.1579 14.3325 14.9363 14.3325 14.662C14.3325 14.3895 14.5541 14.168 14.8283 14.168H21.8647C22.139 14.168 22.3606 14.3895 22.3606 14.662C22.3606 14.9363 22.139 15.1579 21.8647 15.1579Z" fill="#AA7D77"/>
<path d="M18.3467 24.1125C17.0351 24.1125 15.8535 23.3231 15.3525 22.1117C14.8514 20.9003 15.1292 19.506 16.0558 18.5794C16.9823 17.6528 18.3766 17.375 19.5863 17.8779C20.7977 18.379 21.5871 19.5605 21.5871 20.8721C21.5836 22.6602 20.1347 24.109 18.3467 24.1125ZM18.3467 18.6181C17.436 18.6181 16.6166 19.1649 16.2667 20.0071C15.9186 20.8475 16.112 21.8163 16.7555 22.4598C17.399 23.1033 18.3678 23.2949 19.2082 22.9468C20.0486 22.5986 20.5971 21.7776 20.5971 20.8686C20.5954 19.6255 19.588 18.6199 18.3467 18.6181Z" fill="#AA7D77"/>
<path d="M9.37244 32.3406C9.21771 32.3406 9.07178 32.2703 8.9786 32.1472C8.88542 32.0241 8.85377 31.8641 8.89421 31.7147L9.78387 28.4585V28.4602C9.81552 28.3477 9.88409 28.2492 9.97903 28.1842L12.6392 26.3363V26.3346C12.7465 26.2572 12.8801 26.2273 13.0102 26.2502C13.142 26.273 13.2581 26.3469 13.3337 26.4541C13.4093 26.5631 13.4374 26.6985 13.4128 26.8286C13.3882 26.9587 13.3143 27.073 13.2036 27.1486L10.6946 28.8945L10.0969 31.0834L13.877 29.8228C14.1372 29.7367 14.4167 29.8756 14.5046 30.1358C14.5908 30.3942 14.4519 30.6755 14.1917 30.7617L9.52911 32.3177C9.47812 32.3335 9.42518 32.3423 9.37244 32.3406Z" fill="#AA7D77"/>
<path d="M27.3209 32.3403C27.2681 32.3403 27.2154 32.3315 27.1644 32.3157L22.505 30.7632V30.7614C22.2448 30.6753 22.1059 30.394 22.192 30.1355C22.2799 29.8753 22.5612 29.7347 22.8197 29.8226L26.5998 31.0832L26.002 28.8942L23.4896 27.1484L23.4913 27.1466C23.2663 26.9901 23.21 26.6825 23.3665 26.4574C23.523 26.2324 23.8306 26.1779 24.0557 26.3343L26.7159 28.184V28.1822C26.8108 28.249 26.8811 28.3475 26.911 28.4583L27.7989 31.7144C27.8394 31.8639 27.8077 32.0239 27.7145 32.147C27.6213 32.2683 27.4756 32.3403 27.3209 32.3403Z" fill="#AA7D77"/>
<path d="M18.3468 37.0002C18.2272 37.0002 18.1112 36.9562 18.0215 36.8771C16.8857 35.8872 16.3143 34.8094 16.3266 33.6754C16.3354 32.8807 16.6413 32.0649 17.218 31.3176V31.3194C17.3851 31.1014 17.6945 31.0609 17.9125 31.228C18.1288 31.395 18.1692 31.7062 18.0022 31.9225C16.9772 33.2552 17.0932 34.5686 18.3468 35.8292C19.6004 34.5686 19.7165 33.257 18.6914 31.9242C18.6088 31.8205 18.5719 31.6886 18.5877 31.5568C18.6035 31.4249 18.6721 31.3053 18.7776 31.2245C18.8813 31.1436 19.0149 31.1084 19.1468 31.126C19.2769 31.1454 19.3964 31.2139 19.4756 31.3212C20.0505 32.0684 20.3582 32.8825 20.367 33.6789C20.3793 34.8129 19.8096 35.889 18.6721 36.8788C18.5824 36.958 18.4663 37.0002 18.3468 37.0002Z" fill="#AA7D77"/>
</svg>

