 <svg width="235" height="124" viewBox="0 0 235 124" fill="none" xmlns="http://www.w3.org/2000/svg">
<path d="M128.269 53.7724C128.269 53.1931 128.545 52.7793 129.097 52.531C129.262 52.5034 129.497 52.4759 129.8 52.4483C130.103 52.4207 130.379 52.5172 130.628 52.7379C130.903 52.9586 131.041 53.3034 131.041 53.7724V73.6345C131.041 74.2966 130.752 74.7241 130.172 74.9172C130.007 74.9724 129.786 75 129.51 75C129.234 75 128.959 74.8897 128.683 74.669C128.407 74.4483 128.269 74.1034 128.269 73.6345V53.7724ZM139.447 58.1172C139.447 58.6966 139.641 59.2483 140.027 59.7724C140.413 60.269 140.91 60.6828 141.516 61.0138C142.123 61.3448 142.813 61.6345 143.585 61.8828C144.358 62.131 145.172 62.3931 146.027 62.669C146.882 62.9448 147.723 63.2483 148.551 63.5793C149.378 63.9103 150.096 64.3241 150.703 64.8207C152.027 65.8966 152.689 67.3586 152.689 69.2069C152.689 70.0897 152.482 70.931 152.068 71.731C151.654 72.5034 151.075 73.1517 150.33 73.6759C148.813 74.7793 146.785 75.331 144.247 75.331C141.847 75.331 139.737 74.7241 137.916 73.5103C136.785 72.7931 136.22 72.1862 136.22 71.6897C136.22 71.2483 136.441 70.8897 136.882 70.6138C136.992 70.5034 137.13 70.4483 137.296 70.4483C137.461 70.4483 137.641 70.5172 137.834 70.6552C138.027 70.7931 138.247 70.9586 138.496 71.1517C138.772 71.3448 139.103 71.5655 139.489 71.8138C139.903 72.0345 140.33 72.2414 140.772 72.4345C141.875 72.8759 142.951 73.0828 143.999 73.0552C145.047 73.0276 145.889 72.9448 146.523 72.8069C147.158 72.669 147.723 72.4345 148.22 72.1034C149.268 71.3862 149.806 70.4759 149.834 69.3724C149.834 67.9931 149.158 66.931 147.806 66.1862C147.199 65.8552 146.51 65.5655 145.737 65.3172C144.992 65.0414 144.192 64.7793 143.337 64.531C142.51 64.2828 141.682 63.9793 140.854 63.6207C140.027 63.2621 139.296 62.8345 138.661 62.3379C137.31 61.2621 136.634 59.8828 136.634 58.2C136.634 57.3172 136.841 56.4897 137.254 55.7172C137.696 54.9448 138.289 54.3103 139.034 53.8138C140.468 52.7931 142.261 52.269 144.413 52.2414C147.53 52.2414 150.041 53.2483 151.944 55.2621C152.054 55.4276 152.11 55.6207 152.11 55.8414C152.11 56.0345 152.096 56.2 152.068 56.3379C152.068 56.4759 151.999 56.6138 151.861 56.7517C151.668 57 151.406 57.1241 151.075 57.1241C150.772 57.1241 150.441 56.9172 150.082 56.5034C149.172 55.8414 148.441 55.4138 147.889 55.2207C146.785 54.7793 145.71 54.5586 144.661 54.5586C143.31 54.5586 142.151 54.8345 141.185 55.3862C140.027 56.0483 139.447 56.9586 139.447 58.1172ZM169.902 71.3586L177.391 54.8069C177.833 53.869 178.164 53.2759 178.384 53.0276C178.853 52.6138 179.322 52.4069 179.791 52.4069C180.288 52.4069 180.66 52.4621 180.909 52.5724C181.184 52.6828 181.419 52.8345 181.612 53.0276C182.081 53.4966 182.315 54.1172 182.315 54.8897V73.7586C182.315 74.1724 182.178 74.4897 181.902 74.7103C181.653 74.9034 181.364 75 181.033 75C180.702 75 180.412 74.9034 180.164 74.7103C179.915 74.4897 179.791 74.1724 179.791 73.7586V55.2207L171.598 73.2621C171.267 74.0897 170.688 74.5034 169.86 74.5034C169.143 74.5034 168.578 74.0897 168.164 73.2621L160.012 55.3034V73.7586C160.012 74.1724 159.874 74.4897 159.598 74.7103C159.35 74.9034 159.06 75 158.729 75C158.398 75 158.095 74.9034 157.819 74.7103C157.571 74.4897 157.446 74.1724 157.446 73.7586V54.8897C157.446 53.6759 157.888 52.9034 158.771 52.5724C159.074 52.5172 159.378 52.4759 159.681 52.4483C160.012 52.4207 160.302 52.4483 160.55 52.531C160.826 52.6138 161.06 52.7379 161.253 52.9034C161.584 53.1793 161.998 53.8138 162.495 54.8069L169.86 71.3586H169.902ZM206.514 73.2621C206.542 73.4276 206.556 73.5931 206.556 73.7586C206.556 73.9241 206.514 74.0897 206.432 74.2552C206.349 74.4207 206.238 74.5448 206.101 74.6276C205.825 74.8759 205.521 75 205.19 75C204.528 75 204.087 74.7103 203.866 74.131L201.838 69.1241H190.666L188.68 74.131C188.487 74.7103 188.101 75 187.521 75C186.942 75 186.501 74.7517 186.197 74.2552C186.114 74.0897 186.073 73.9379 186.073 73.8C186.073 73.6621 186.114 73.4828 186.197 73.2621L193.687 54.8897C194.238 53.5103 194.873 52.7241 195.59 52.531C195.783 52.5034 196.032 52.4621 196.335 52.4069C196.887 52.4069 197.301 52.531 197.576 52.7793C198.018 53.1103 198.459 53.8138 198.901 54.8897L206.514 73.2621ZM191.452 66.931H201.094L196.252 54.7655L191.452 66.931ZM208.915 54.7655C208.501 54.7655 208.197 54.6414 208.004 54.3931C207.811 54.1448 207.715 53.8828 207.715 53.6069C207.715 53.3034 207.811 53.0276 208.004 52.7793C208.197 52.531 208.501 52.4069 208.915 52.4069H224.018C224.404 52.4069 224.694 52.531 224.887 52.7793C225.08 53.0276 225.177 53.3034 225.177 53.6069C225.177 53.8828 225.066 54.1448 224.846 54.3931C224.653 54.6414 224.377 54.7655 224.018 54.7655H217.894V73.6345C217.894 74.269 217.618 74.6966 217.066 74.9172C216.901 74.9724 216.68 75 216.404 75C216.128 75 215.839 74.8897 215.535 74.669C215.232 74.4483 215.08 74.1034 215.08 73.6345V54.7655H208.915ZM228.816 53.7724C228.816 53.1931 229.092 52.7793 229.643 52.531C229.809 52.5034 230.043 52.4759 230.347 52.4483C230.65 52.4207 230.926 52.5172 231.174 52.7379C231.45 52.9586 231.588 53.3034 231.588 53.7724V73.6345C231.588 74.2966 231.299 74.7241 230.719 74.9172C230.554 74.9724 230.333 75 230.057 75C229.781 75 229.505 74.8897 229.23 74.669C228.954 74.4483 228.816 74.1034 228.816 73.6345V53.7724Z" fill="#AA7D77"/>
<path d="M198.869 111.932C198.364 111.932 197.743 112.31 196.992 112.557C188.367 115.955 179.115 116.957 172.612 116.957C164.117 116.957 147.489 115.578 121.109 101.992L95.9865 89.0374C103.86 83.7586 117.739 69.8006 117.739 47.6621C117.739 18.2331 96.9895 0 67.107 0C41.4566 0 26.5971 13.8183 20 29.1389C20.7243 29.235 21.4428 29.3706 22.1524 29.5452C25.5236 23.2207 32.2136 19.1035 39.4677 19.1035H39.4816C45.2701 9.81722 54.4436 6.03326 64.2368 6.03326C81.4869 6.03326 100.235 20.621 100.235 51.0624C100.235 87.9057 81.3619 92.313 71.3584 92.313C61.2469 92.313 51.6696 88.1217 44.6473 80.1508L44.5747 80.34L20.6281 71.0676C27.4485 86.1347 41.9768 98.6021 66.7321 98.6021C73.3548 98.6021 81.3662 97.2147 86.3557 95.3264L105.994 106.9C126.622 119.099 139.996 124 158.869 124C176.869 124 190.994 118.22 198.499 114.568C199.372 114.19 200 113.815 200 113.063C200 112.914 199.971 112.766 199.915 112.628C199.858 112.49 199.774 112.365 199.669 112.26C199.564 112.155 199.439 112.072 199.302 112.015C199.164 111.959 199.017 111.931 198.869 111.932Z" fill="#222D39"/>
<path d="M42.6296 77L10.8139 64.6983C8.74594 63.8998 6.85487 62.6997 5.24871 61.1666C3.64256 59.6336 2.35279 57.7975 1.45313 55.7635C0.553459 53.7294 0.0615197 51.5372 0.0054099 49.312C-0.0506999 47.0869 0.330122 44.8724 1.12612 42.7952C4.46821 34.0702 14.2508 29.7049 22.9284 33.0606L23.2519 33.1874L23.3769 32.8624C26.719 24.1417 36.4973 19.7775 45.1771 23.1289C47.2478 23.9229 49.1413 25.1216 50.7481 26.6554C52.3549 28.1893 53.6431 30.028 54.5382 32.0652C55.4441 34.0988 55.9392 36.293 55.9948 38.5203C56.0503 40.7477 55.6651 42.964 54.8616 45.0407L42.6296 77ZM16.8803 41.4445C15.1511 41.4421 13.4756 42.0483 12.1448 43.1578C10.814 44.2672 9.91202 45.8099 9.59536 47.5179C9.2787 49.226 9.5674 50.9915 10.4113 52.508C11.2553 54.0244 12.6011 55.1961 14.2153 55.8194L37.1916 64.7015L46.032 41.6178C46.3847 40.7068 46.5537 39.7345 46.5293 38.7574C46.5048 37.7802 46.2874 36.8177 45.8897 35.9256C45.2951 34.5822 44.3175 33.446 43.0803 32.6607C41.8432 31.8753 40.4021 31.4761 38.9392 31.5134C37.4763 31.5508 36.0572 32.023 34.8614 32.8704C33.6655 33.7178 32.7465 34.9024 32.2205 36.2744L28.6984 45.4815L19.5346 41.9362C18.6876 41.6091 17.7877 41.4424 16.8803 41.4445Z" fill="#AA7D77"/>
</svg>

